<?xml version="1.0" standalone="no"?>
<!DOCTYPE svg PUBLIC "-//W3C//DTD SVG 20010904//EN"
 "http://www.w3.org/TR/2001/REC-SVG-20010904/DTD/svg10.dtd">
<svg version="1.0" xmlns="http://www.w3.org/2000/svg"
 width="512.000000pt" height="512.000000pt" viewBox="0 0 512.000000 512.000000"
 preserveAspectRatio="xMidYMid meet">
<metadata>
Created by potrace 1.14, written by Peter Selinger 2001-2017
</metadata>
<g transform="translate(0.000000,512.000000) scale(0.100000,-0.100000)"
fill="#000000" stroke="none">
<path d="M1880 4660 c-97 -17 -112 -21 -168 -41 -364 -132 -623 -429 -688
-794 -13 -73 -21 -296 -10 -313 2 -4 7 -28 10 -54 8 -60 41 -165 73 -237 24
-54 87 -163 108 -188 131 -158 225 -238 370 -310 110 -56 172 -76 291 -98 78
-14 285 -14 349 0 17 3 49 10 72 16 64 14 170 56 243 96 229 125 398 326 483
573 37 109 48 171 52 295 5 142 -9 238 -51 363 -83 250 -263 459 -504 589 -57
31 -183 78 -235 87 -16 3 -41 9 -55 12 -38 10 -289 13 -340 4z"/>
<path d="M3922 3389 c-45 -9 -90 -54 -99 -98 -4 -20 -6 -68 -6 -107 l1 -71
-79 -38 c-44 -21 -103 -55 -131 -77 -28 -21 -53 -38 -55 -38 -1 0 -19 10 -40
22 -189 108 -217 99 -336 -103 -74 -126 -78 -137 -74 -182 5 -59 28 -85 125
-141 40 -23 70 -45 66 -48 -9 -9 -12 -200 -4 -252 l7 -46 -78 -45 c-94 -54
-114 -81 -114 -150 1 -44 9 -65 69 -165 81 -138 96 -155 148 -168 48 -12 76
-4 167 49 l64 37 51 -38 c57 -43 151 -94 189 -104 24 -6 25 -8 24 -95 -1 -106
12 -141 63 -176 38 -26 39 -26 204 -23 l166 3 36 37 37 37 5 104 5 104 53 23
c29 12 89 45 132 74 l79 53 77 -45 c62 -36 86 -44 122 -44 72 2 98 32 224 257
29 52 32 101 8 144 -19 33 -55 70 -70 71 -4 0 -31 14 -59 31 -48 30 -50 34
-44 65 8 44 8 167 0 226 l-6 46 61 33 c82 43 116 77 129 126 14 51 14 50 -73
205 -56 101 -78 131 -107 147 -51 29 -94 26 -159 -10 -117 -66 -102 -65 -161
-20 -48 37 -124 78 -183 101 -25 9 -26 12 -26 96 0 98 -16 142 -62 176 -27 19
-45 21 -172 23 -77 1 -156 -2 -174 -6z m271 -706 c186 -73 273 -279 192 -459
-31 -71 -83 -125 -157 -165 -58 -31 -70 -34 -153 -33 -78 0 -98 4 -147 27 -60
30 -137 106 -162 161 -62 134 -35 289 67 389 96 95 239 127 360 80z"/>
<path d="M890 2404 c-140 -27 -239 -80 -335 -181 -68 -71 -109 -152 -169 -340
-119 -369 -175 -542 -216 -673 -23 -74 -54 -169 -67 -210 -56 -168 -25 -317
90 -433 48 -48 143 -101 202 -112 43 -7 3243 -7 3285 1 113 21 237 120 287
231 39 85 39 213 -1 338 -15 50 -31 94 -35 98 -4 4 -21 10 -37 13 -41 7 -112
40 -151 70 -66 50 -124 162 -125 243 0 32 -5 40 -39 59 l-39 22 -39 -20 c-124
-63 -279 -35 -381 70 -63 64 -186 273 -207 353 -18 66 -11 157 18 221 23 54
89 130 129 151 21 11 26 20 25 52 -1 49 -10 62 -38 58 -12 -2 -41 -6 -64 -9
-23 -3 -95 -24 -160 -46 -111 -38 -247 -77 -303 -86 -14 -3 -47 -9 -75 -14
-27 -5 -72 -12 -100 -15 -27 -2 -77 -8 -110 -11 -116 -12 -405 -6 -495 11 -14
2 -47 7 -74 10 -116 14 -234 44 -432 111 -149 49 -236 59 -344 38z"/>
</g>
</svg>
